HIERARCHY
ROOT Hip
{
	OFFSET	0.0000	0.0000	0.0000
	CHANNELS 6 Xposition Yposition Zposition Xrotation Yrotation Zrotation
	JOINT LowerSpine
	{
		OFFSET	0.0000	10.3005	-5.5740
		CHANNELS 3 Xrotation Yrotation Zrotation
		JOINT MiddleSpine
		{
			OFFSET	0.0000	9.4000	0.4911
			CHANNELS 3 Xrotation Yrotation Zrotation
			JOINT Chest
			{
				OFFSET	0.0000	11.6313	-2.5890
				CHANNELS 3 Xrotation Yrotation Zrotation
				JOINT Neck
				{
					OFFSET	0.0000	26.2109	-0.5451
					CHANNELS 3 Xrotation Yrotation Zrotation
					JOINT Head
					{
						OFFSET	-0.0001	14.8016	4.0260
						CHANNELS 3 Xrotation Yrotation Zrotation
						End Site
						{
							OFFSET	0.0001	20.6815	0.6174
						}
					}
				}
				JOINT LClavicle
				{
					OFFSET	2.6462	25.2948	8.6662
					CHANNELS 3 Xrotation Yrotation Zrotation
					JOINT LShoulder
					{
						OFFSET	15.4595	3.6282	-5.8708
						CHANNELS 3 Xrotation Yrotation Zrotation
						JOINT LForearm
						{
							OFFSET	32.8390	-0.1164	-0.2846
							CHANNELS 3 Xrotation Yrotation Zrotation
							JOINT LHand
							{
								OFFSET	27.3947	0.0795	-0.1641
								CHANNELS 3 Xrotation Yrotation Zrotation
								JOINT LFinger1
								{
									OFFSET	10.6174	0.9286	2.9490
									CHANNELS 3 Xrotation Yrotation Zrotation
									JOINT LFinger11
									{
										OFFSET	3.9715	-0.9684	0.6998
										CHANNELS 3 Xrotation Yrotation Zrotation
										JOINT LFinger12
										{
											OFFSET	2.7112	-0.6613	0.4779
											CHANNELS 3 Xrotation Yrotation Zrotation
											End Site
											{
												OFFSET	1.9293	-0.5759	0.3129
											}
										}
									}
								}
								JOINT LFinger2
								{
									OFFSET	10.7758	1.0723	0.2567
									CHANNELS 3 Xrotation Yrotation Zrotation
									JOINT LFinger21
									{
										OFFSET	4.9105	0.0137	-0.0290
										CHANNELS 3 Xrotation Yrotation Zrotation
										JOINT LFinger22
										{
											OFFSET	2.7219	0.0084	-0.0166
											CHANNELS 3 Xrotation Yrotation Zrotation
											End Site
											{
												OFFSET	2.4447	-0.1726	0.0033
											}
										}
									}
								}
								JOINT LFinger3
								{
									OFFSET	10.2124	0.7156	-2.4161
									CHANNELS 3 Xrotation Yrotation Zrotation
									JOINT LFinger31
									{
										OFFSET	4.4557	-0.2256	-0.2790
										CHANNELS 3 Xrotation Yrotation Zrotation
										JOINT LFinger32
										{
											OFFSET	2.5391	-0.1278	-0.1595
											CHANNELS 3 Xrotation Yrotation Zrotation
											End Site
											{
												OFFSET	2.2450	-0.2760	-0.1061
											}
										}
									}
								}
								JOINT LFinger4
								{
									OFFSET	9.4767	-0.7201	-4.1725
									CHANNELS 3 Xrotation Yrotation Zrotation
									JOINT LFinger41
									{
										OFFSET	2.7407	-0.5715	-0.7566
										CHANNELS 3 Xrotation Yrotation Zrotation
										JOINT LFinger42
										{
											OFFSET	2.0098	-0.4185	-0.5552
											CHANNELS 3 Xrotation Yrotation Zrotation
											End Site
											{
												OFFSET	1.7838	-0.4901	-0.4093
											}
										}
									}
								}
								JOINT LFinger0
								{
									OFFSET	2.1964	-1.6624	1.6651
									CHANNELS 3 Xrotation Yrotation Zrotation
									JOINT LFinger01
									{
										OFFSET	4.0893	-1.3429	3.0830
										CHANNELS 3 Xrotation Yrotation Zrotation
										JOINT LFinger02
										{
											OFFSET	2.6927	-0.9636	1.9400
											CHANNELS 3 Xrotation Yrotation Zrotation
											End Site
											{
												OFFSET	1.9801	-0.6816	1.3559
											}
										}
									}
								}
							}
						}
					}
				}
				JOINT RClavicle
				{
					OFFSET	-2.6462	25.2948	8.6661
					CHANNELS 3 Xrotation Yrotation Zrotation
					JOINT RShoulder
					{
						OFFSET	-15.4622	3.6288	-5.8718
						CHANNELS 3 Xrotation Yrotation Zrotation
						JOINT RForearm
						{
							OFFSET	-32.8390	-0.1164	-0.2846
							CHANNELS 3 Xrotation Yrotation Zrotation
							JOINT RHand
							{
								OFFSET	-27.3947	0.0795	-0.1641
								CHANNELS 3 Xrotation Yrotation Zrotation
								JOINT RFinger1
								{
									OFFSET	-10.6175	0.9287	2.9490
									CHANNELS 3 Xrotation Yrotation Zrotation
									JOINT RFinger11
									{
										OFFSET	-3.9715	-0.9684	0.6998
										CHANNELS 3 Xrotation Yrotation Zrotation
										JOINT RFinger12
										{
											OFFSET	-2.7112	-0.6614	0.4779
											CHANNELS 3 Xrotation Yrotation Zrotation
											End Site
											{
												OFFSET	-1.9293	-0.5759	0.3129
											}
										}
									}
								}
								JOINT RFinger2
								{
									OFFSET	-10.7758	1.0724	0.2568
									CHANNELS 3 Xrotation Yrotation Zrotation
									JOINT RFinger21
									{
										OFFSET	-4.9105	0.0137	-0.0290
										CHANNELS 3 Xrotation Yrotation Zrotation
										JOINT RFinger22
										{
											OFFSET	-2.7219	0.0083	-0.0167
											CHANNELS 3 Xrotation Yrotation Zrotation
											End Site
											{
												OFFSET	-2.4447	-0.1726	0.0033
											}
										}
									}
								}
								JOINT RFinger3
								{
									OFFSET	-10.2124	0.7157	-2.4161
									CHANNELS 3 Xrotation Yrotation Zrotation
									JOINT RFinger31
									{
										OFFSET	-4.4557	-0.2256	-0.2790
										CHANNELS 3 Xrotation Yrotation Zrotation
										JOINT RFinger32
										{
											OFFSET	-2.5391	-0.1277	-0.1595
											CHANNELS 3 Xrotation Yrotation Zrotation
											End Site
											{
												OFFSET	-2.2450	-0.2760	-0.1061
											}
										}
									}
								}
								JOINT RFinger4
								{
									OFFSET	-9.4767	-0.7201	-4.1725
									CHANNELS 3 Xrotation Yrotation Zrotation
									JOINT RFinger41
									{
										OFFSET	-2.7407	-0.5715	-0.7566
										CHANNELS 3 Xrotation Yrotation Zrotation
										JOINT RFinger42
										{
											OFFSET	-2.0097	-0.4184	-0.5552
											CHANNELS 3 Xrotation Yrotation Zrotation
											End Site
											{
												OFFSET	-1.7838	-0.4901	-0.4092
											}
										}
									}
								}
								JOINT RFinger0
								{
									OFFSET	-2.1964	-1.6623	1.6649
									CHANNELS 3 Xrotation Yrotation Zrotation
									JOINT RFinger01
									{
										OFFSET	-4.0892	-1.3431	3.0832
										CHANNELS 3 Xrotation Yrotation Zrotation
										JOINT RFinger02
										{
											OFFSET	-2.6927	-0.9634	1.9400
											CHANNELS 3 Xrotation Yrotation Zrotation
											End Site
											{
												OFFSET	-1.9801	-0.6816	1.3559
											}
										}
									}
								}
							}
						}
					}
				}
			}
		}
	}
	JOINT RThigh
	{
		OFFSET	-11.0190	4.6561	-0.9082
		CHANNELS 3 Xrotation Yrotation Zrotation
		JOINT RShin
		{
			OFFSET	-0.8817	-47.9274	0.0000
			CHANNELS 3 Xrotation Yrotation Zrotation
			JOINT RFoot
			{
				OFFSET	0.0000	-47.0618	0.0000
				CHANNELS 3 Xrotation Yrotation Zrotation
				JOINT RToe
				{
					OFFSET	0.0000	-5.1725	10.8164
					CHANNELS 3 Xrotation Yrotation Zrotation
					End Site
					{
						OFFSET	0.0000	0.0000	7.2563
					}
				}
			}
		}
	}
	JOINT LThigh
	{
		OFFSET	11.0188	4.6564	-0.9083
		CHANNELS 3 Xrotation Yrotation Zrotation
		JOINT LShin
		{
			OFFSET	0.8818	-47.9278	0.0000
			CHANNELS 3 Xrotation Yrotation Zrotation
			JOINT LFoot
			{
				OFFSET	0.0000	-47.0618	0.0000
				CHANNELS 3 Xrotation Yrotation Zrotation
				JOINT LToe
				{
					OFFSET	0.0000	-5.1725	10.8164
					CHANNELS 3 Xrotation Yrotation Zrotation
					End Site
					{
						OFFSET	0.0000	0.0000	7.2563
					}
				}
			}
		}
	}
}
MOTION
Frames:	4
Frame Time: 0.0333333000
	9.1238	99.2314	-89.8618	-7.914882	-5.620951	-3.513103	0.000000	0.000000	0.000000	1.019796	1.477298	1.811387	3.220024	5.043403	5.945108	0.000000	0.000000	0.000000	1.544640	8.646082	-3.418227	0.000000	0.000000	-15.588090	29.397290	-50.559680	-45.966460	24.756630	-22.284830	3.504007	0.000000	0.000000	0.000000	0.000000	0.000000	0.000000	0.000000	0.000000	0.000000	0.000000	0.000000	0.000000	0.000000	0.000000	0.000000	0.000000	0.000000	0.000000	0.000000	0.000000	0.000000	0.000000	0.000000	0.000000	0.000000	0.000000	0.000000	0.000000	0.000000	0.000000	0.000000	0.000000	0.000000	0.000000	0.000000	0.000000	0.000000	0.000000	0.000000	0.000000	0.000000	0.000000	0.000000	0.000000	0.000000	0.000000	0.000000	0.000000	0.000000	0.000000	15.499160	8.863630	14.654970	61.234220	-3.928895	16.476670	-2.409544	38.973760	24.955670	-6.740167	0.000000	0.000000	0.000000	0.000000	0.000000	0.000000	0.000000	0.000000	0.000000	0.000000	0.000000	0.000000	0.000000	0.000000	0.000000	0.000000	0.000000	0.000000	0.000000	0.000000	0.000000	0.000000	0.000000	0.000000	0.000000	0.000000	0.000000	0.000000	0.000000	0.000000	0.000000	0.000000	0.000000	0.000000	0.000000	0.000000	0.000000	0.000000	0.000000	0.000000	0.000000	0.000000	0.000000	0.000000	0.000000	1.770579	-0.556670	1.990455	11.240150	0.000001	0.000000	-0.074837	1.081532	0.524007	0.000000	0.000000	0.000000	8.768468	0.636382	4.292513	0.592895	0.000000	0.000000	-1.990295	0.722531	0.363660	0.000000	0.000000	0.000000
	9.0927	99.2026	-90.1690	-7.953600	-7.082224	-3.710649	0.000000	0.000000	0.000000	1.244722	1.475338	1.857310	3.965775	5.066932	6.074953	0.000000	0.000000	0.000000	0.699842	10.158100	-3.529954	0.000000	0.000000	-15.783500	20.510950	-42.115000	-53.703620	24.786850	-22.444000	3.583438	0.000000	0.000000	0.000000	0.000000	0.000000	0.000000	0.000000	0.000000	0.000000	0.000000	0.000000	0.000000	0.000000	0.000000	0.000000	0.000000	0.000000	0.000000	0.000000	0.000000	0.000000	0.000000	0.000000	0.000000	0.000000	0.000000	0.000000	0.000000	0.000000	0.000000	0.000000	0.000000	0.000000	0.000000	0.000000	0.000000	0.000000	0.000000	0.000000	0.000000	0.000000	0.000000	0.000000	0.000000	0.000000	0.000000	0.000000	0.000000	0.000000	0.000000	15.829790	0.046287	-1.238232	63.395050	-4.017715	20.319650	-2.128291	55.089530	31.971450	13.499840	0.000000	0.000000	0.000000	0.000000	0.000000	0.000000	0.000000	0.000000	0.000000	0.000000	0.000000	0.000000	0.000000	0.000000	0.000000	0.000000	0.000000	0.000000	0.000000	0.000000	0.000000	0.000000	0.000000	0.000000	0.000000	0.000000	0.000000	0.000000	0.000000	0.000000	0.000000	0.000000	0.000000	0.000000	0.000000	0.000000	0.000000	0.000000	0.000000	0.000000	0.000000	0.000000	0.000000	0.000000	0.000000	0.437218	-0.930626	1.931748	13.422270	0.000001	0.000000	-0.646949	2.942296	1.430270	0.000000	0.000000	0.000000	8.741654	0.556864	4.337667	0.676465	0.000000	0.000000	-2.162117	0.813774	0.409796	0.000000	0.000000	0.000000
	9.0443	99.1416	-90.5203	-8.079703	-8.675484	-3.880038	0.000000	0.000000	0.000000	1.434415	1.450441	1.899884	4.597164	5.010415	6.198986	0.000000	0.000000	0.000000	-0.202435	11.536170	-3.431622	0.000000	0.000000	-15.847130	16.223220	-36.261620	-56.994980	24.846520	-22.754020	3.738719	0.000000	0.000000	0.000000	0.000000	0.000000	0.000000	0.000000	0.000000	0.000000	0.000000	0.000000	0.000000	0.000000	0.000000	0.000000	0.000000	0.000000	0.000000	0.000000	0.000000	0.000000	0.000000	0.000000	0.000000	0.000000	0.000000	0.000000	0.000000	0.000000	0.000000	0.000000	0.000000	0.000000	0.000000	0.000000	0.000000	0.000000	0.000000	0.000000	0.000000	0.000000	0.000000	0.000000	0.000000	0.000000	0.000000	0.000000	0.000000	0.000000	0.000000	16.119760	-6.584409	-14.937830	63.558900	-4.244820	27.416590	-1.568108	65.644820	33.326050	20.484300	0.000000	0.000000	0.000000	0.000000	0.000000	0.000000	0.000000	0.000000	0.000000	0.000000	0.000000	0.000000	0.000000	0.000000	0.000000	0.000000	0.000000	0.000000	0.000000	0.000000	0.000000	0.000000	0.000000	0.000000	0.000000	0.000000	0.000000	0.000000	0.000000	0.000000	0.000000	0.000000	0.000000	0.000000	0.000000	0.000000	0.000000	0.000000	0.000000	0.000000	0.000000	0.000000	0.000000	0.000000	0.000000	-0.428896	-0.876802	1.947763	14.591800	0.000001	0.000000	-1.083302	4.440241	2.177464	0.000000	0.000000	0.000000	8.809477	0.576800	4.258662	0.823498	0.000000	0.000000	-1.985627	1.184501	0.594677	0.000000	0.000000	0.000000
	9.1894	99.0997	-90.6654	-8.138995	-9.955534	-3.893782	0.000000	0.000000	0.000000	1.525421	1.438770	1.935748	4.898433	4.986917	6.310208	0.000000	0.000000	0.000000	-0.708310	12.469860	-3.638539	0.000000	0.000000	-15.777310	15.360880	-35.095720	-57.193420	24.831550	-22.676780	3.699960	0.000000	0.000000	0.000000	0.000000	0.000000	0.000000	0.000000	0.000000	0.000000	0.000000	0.000000	0.000000	0.000000	0.000000	0.000000	0.000000	0.000000	0.000000	0.000000	0.000000	0.000000	0.000000	0.000000	0.000000	0.000000	0.000000	0.000000	0.000000	0.000000	0.000000	0.000000	0.000000	0.000000	0.000000	0.000000	0.000000	0.000000	0.000000	0.000000	0.000000	0.000000	0.000000	0.000000	0.000000	0.000000	0.000000	0.000000	0.000000	0.000000	0.000000	16.049720	-10.429000	-23.133120	61.802070	-4.621999	35.374950	-0.845831	68.958110	35.538250	30.469310	0.000000	0.000000	0.000000	0.000000	0.000000	0.000000	0.000000	0.000000	0.000000	0.000000	0.000000	0.000000	0.000000	0.000000	0.000000	0.000000	0.000000	0.000000	0.000000	0.000000	0.000000	0.000000	0.000000	0.000000	0.000000	0.000000	0.000000	0.000000	0.000000	0.000000	0.000000	0.000000	0.000000	0.000000	0.000000	0.000000	0.000000	0.000000	0.000000	0.000000	0.000000	0.000000	0.000000	0.000000	0.000000	-0.682777	-0.593660	1.946009	14.874710	0.000001	0.000000	-1.229428	3.901752	1.913564	0.000000	0.000000	0.000000	8.950914	0.610813	3.926941	0.808217	0.000000	0.000000	-1.908118	1.731328	0.867019	0.000000	0.000000	0.000000
